<svg width="128" height="128" viewBox="0 0 128 128" fill="none" xmlns="http://www.w3.org/2000/svg">
<circle cx="64" cy="64" r="64" fill="#0D0C0F"/>
<path d="M89.5 93.88V87.8133C89.5 84.5954 88.1304 81.5092 85.6924 79.2338C83.2544 76.9583 79.9478 75.68 76.5 75.68H50.5C47.0522 75.68 43.7456 76.9583 41.3076 79.2338C38.8696 81.5092 37.5 84.5954 37.5 87.8133V93.88" stroke="#FF859B" stroke-width="4" stroke-linecap="round" stroke-linejoin="round"/>
<path d="M64 64.12C71.1797 64.12 77 57.6013 77 49.56C77 41.5187 71.1797 35 64 35C56.8203 35 51 41.5187 51 49.56C51 57.6013 56.8203 64.12 64 64.12Z" stroke="#FF859B" stroke-width="4" stroke-linecap="round" stroke-linejoin="round"/>
</svg>